<svg width="19" height="18" viewBox="0 0 19 18" fill="none" xmlns="http://www.w3.org/2000/svg">
<path d="M12.714 0C12.7559 0 12.7978 0 12.842 0C12.9448 1.2694 12.4603 2.21789 11.8714 2.90476C11.2936 3.58688 10.5024 4.24845 9.22273 4.14807C9.13737 2.89685 9.62268 2.01871 10.2107 1.33342C10.7561 0.69477 11.756 0.126466 12.714 0Z" fill="black"/>
<path d="M16.5878 13.2125C16.5878 13.2252 16.5878 13.2362 16.5878 13.2481C16.2281 14.3373 15.7152 15.2708 15.0892 16.137C14.5177 16.9235 13.8174 17.9819 12.567 17.9819C11.4865 17.9819 10.7688 17.2871 9.66141 17.2681C8.49002 17.2492 7.84584 17.8491 6.77484 18C6.65232 18 6.52981 18 6.40967 18C5.62321 17.8862 4.98851 17.2634 4.52612 16.7022C3.16266 15.0439 2.10905 12.9019 1.91302 10.1608C1.91302 9.89202 1.91302 9.62407 1.91302 9.35533C1.99602 7.39354 2.94925 5.79849 4.21628 5.02547C4.88497 4.61445 5.80421 4.2643 6.82779 4.4208C7.26647 4.48878 7.71463 4.63896 8.10747 4.78755C8.47975 4.93062 8.9453 5.18434 9.38635 5.1709C9.68512 5.16221 9.98232 5.0065 10.2835 4.89663C11.1656 4.5781 12.0303 4.21293 13.17 4.38445C14.5398 4.59153 15.512 5.20015 16.1127 6.13916C14.954 6.87661 14.0379 7.98792 14.1944 9.8857C14.3335 11.6096 15.3358 12.6181 16.5878 13.2125Z" fill="black"/>
</svg>
