<svg width="19" height="18" viewBox="0 0 19 18" fill="none" xmlns="http://www.w3.org/2000/svg">
<g clip-path="url(#clip0_241_632)">
<path d="M8.265 17.91C3.99 17.145 0.75 13.455 0.75 9C0.75 4.05 4.8 0 9.75 0C14.7 0 18.75 4.05 18.75 9C18.75 13.455 15.51 17.145 11.235 17.91L10.74 17.505H8.76L8.265 17.91Z" fill="url(#paint0_linear_241_632)"/>
<path d="M13.26 11.52L13.665 9.00001H11.28V7.24501C11.28 6.52501 11.55 5.98501 12.63 5.98501H13.8V3.69001C13.17 3.60001 12.45 3.51001 11.82 3.51001C9.75 3.51001 8.31 4.77001 8.31 7.02001V9.00001H6.06V11.52H8.31V17.865C8.805 17.955 9.3 18 9.795 18C10.29 18 10.785 17.955 11.28 17.865V11.52H13.26Z" fill="white"/>
</g>
<defs>
<linearGradient id="paint0_linear_241_632" x1="9.75045" y1="17.374" x2="9.75045" y2="-0.0033155" gradientUnits="userSpaceOnUse">
<stop stop-color="#0062E0"/>
<stop offset="1" stop-color="#19AFFF"/>
</linearGradient>
<clipPath id="clip0_241_632">
<rect width="18" height="18" fill="white" transform="translate(0.75)"/>
</clipPath>
</defs>
</svg>
